<svg width="50" height="53" viewBox="0 0 50 53" fill="none" xmlns="http://www.w3.org/2000/svg">
<path d="M24.9602 16.0478C24.6137 16.0478 24.3327 15.7668 24.3327 15.4203V8.51813C24.3327 8.17161 24.6137 7.89062 24.9602 7.89062C25.3067 7.89062 25.5877 8.17161 25.5877 8.51813V15.4203C25.5877 15.7668 25.3067 16.0478 24.9602 16.0478Z" fill="#E9E9E9"/>
<path d="M24.9602 44.2842C24.6137 44.2842 24.3327 44.0032 24.3327 43.6567V36.7545C24.3327 36.4079 24.6137 36.127 24.9602 36.127C25.3067 36.127 25.5877 36.4079 25.5877 36.7545V43.6567C25.5877 44.0032 25.3067 44.2842 24.9602 44.2842Z" fill="#E9E9E9"/>
<path d="M34.9998 26.0875C34.9998 25.7409 35.2807 25.46 35.6273 25.46H42.5295C42.876 25.46 43.157 25.7409 43.157 26.0875C43.157 26.434 42.876 26.715 42.5295 26.715H35.6273C35.2807 26.715 34.9998 26.434 34.9998 26.0875Z" fill="#E9E9E9"/>
<path fill-rule="evenodd" clip-rule="evenodd" d="M9.29179 25.46H7.59079C7.1339 25.46 6.76343 25.7409 6.76343 26.0875C6.76343 26.434 7.1339 26.715 7.59079 26.715H9.77243L9.55412 26.4548L9.38296 25.8057L9.29179 25.46ZM17.3748 26.4411C17.4656 26.3404 17.5187 26.2186 17.5187 26.0875C17.5187 25.7564 17.1805 25.4851 16.7518 25.4616L16.6181 25.5392L17.3748 26.4411Z" fill="#E9E9E9"/>
<path fill-rule="evenodd" clip-rule="evenodd" d="M27.3326 21.4446L27.8234 21.2215C27.5441 21.0565 27.2494 20.9149 26.9421 20.7993L27.3326 21.4446ZM21.3899 23.1205L20.8265 22.244C20.616 22.4701 20.4238 22.7136 20.2523 22.9718L21.3447 23.596C21.4714 23.4126 21.6118 23.2393 21.7643 23.0775L21.6895 22.9279L21.3899 23.1205Z" fill="#E9E9E9"/>
<path fill-rule="evenodd" clip-rule="evenodd" d="M26.5875 14.2762C28.6771 14.5626 30.5959 15.3925 32.1962 16.6183L33.328 15.9158C31.4459 14.3647 29.1275 13.3248 26.5875 13.0106V14.2762ZM25.5875 12.9254C25.3796 12.9156 25.1705 12.9106 24.9603 12.9106C24.75 12.9106 24.5409 12.9156 24.333 12.9254V14.1819C24.5408 14.1711 24.7499 14.1656 24.9603 14.1656C25.1706 14.1656 25.3798 14.1711 25.5875 14.1819V12.9254ZM12.0708 23.3432C13.2266 17.9086 17.743 13.7021 23.333 13.0106V14.2762C18.7161 14.909 14.9331 18.1952 13.5764 22.5421C13.078 22.8077 12.4894 23.121 12.0708 23.3432ZM11.7989 25.443L12.778 26.9815L13.0603 26.8163C13.0457 26.5752 13.0383 26.3323 13.0383 26.0876C13.0383 25.9664 13.0401 25.8455 13.0437 25.7252L12.7217 25.4435L13.1243 24.3162L13.1698 24.3147C13.1931 24.1586 13.2195 24.0035 13.2489 23.8495C12.6258 24.181 12.0569 24.483 11.9791 24.5219L11.8965 24.3567C11.8494 24.7145 11.8166 25.0768 11.7989 25.443ZM33.0031 17.2944C33.2773 17.5454 33.5397 17.8091 33.7895 18.0844L34.9322 17.483C34.67 17.1796 34.3943 16.8882 34.1059 16.6099L33.0031 17.2944ZM36.0381 18.9589C35.8853 18.7223 35.7251 18.4908 35.5579 18.2649L34.4451 18.8719C34.6256 19.1086 34.7975 19.3523 34.9602 19.6024L36.0381 18.9589ZM36.3936 30.2148H37.4754C35.9037 34.9689 31.6934 38.533 26.5875 39.1646V37.899C31.2618 37.2584 35.0814 33.898 36.3936 29.4705V30.2148ZM38.0046 24.2148H36.7354C36.5236 22.8777 36.0886 21.6138 35.4701 20.4627L36.5484 19.819C37.2775 21.1614 37.7801 22.6439 38.0046 24.2148ZM24.9603 38.0096C25.1706 38.0096 25.3798 38.0041 25.5875 37.9933V39.2498C25.3796 39.2596 25.1705 39.2646 24.9603 39.2646C24.75 39.2646 24.5409 39.2596 24.333 39.2498V37.9933C24.5407 38.0041 24.7499 38.0096 24.9603 38.0096ZM23.333 37.899C21.2776 37.6173 19.3874 36.8096 17.803 35.6167L17.6333 36.6353L17.3489 36.8384C19.0817 38.0688 21.1235 38.8913 23.333 39.1646V37.899ZM14.0191 33.4236L13.6722 31.0334L13.1439 31.3353L12.9281 31.4586C13.2364 32.1467 13.6022 32.8038 14.0191 33.4236Z" fill="#E9E9E9"/>
<path fill-rule="evenodd" clip-rule="evenodd" d="M26.5874 11.7465C29.5817 12.084 32.3015 13.3415 34.4567 15.2287L34.4641 15.2263L34.9472 15.0653L35.0853 15.0192L35.2265 15.0545L35.8707 15.2156L35.884 15.2189L35.8971 15.2229L36.4185 15.3841C33.9021 12.6919 30.4506 10.8841 26.5874 10.4842V11.7465ZM25.5874 10.4128C25.3793 10.4045 25.1702 10.4004 24.9602 10.4004C24.7501 10.4004 24.541 10.4045 24.3329 10.4128V11.6689C24.5409 11.6599 24.75 11.6554 24.9602 11.6554C25.1703 11.6554 25.3794 11.6599 25.5874 11.6689V10.4128ZM9.27325 26.0873C9.27325 25.8772 9.2774 25.6681 9.28563 25.4601H10.5417C10.5328 25.668 10.5283 25.8771 10.5283 26.0873C10.5283 26.2974 10.5328 26.5065 10.5417 26.7145H9.28563C9.2774 26.5064 9.27325 26.2973 9.27325 26.0873ZM9.35702 27.7145C9.43166 28.4355 9.55534 29.1421 9.72465 29.831L10.8604 29.1735C10.7559 28.6955 10.6751 28.2087 10.6194 27.7145H9.35702ZM9.35703 24.4601C10.1183 17.1069 15.9798 11.2454 23.3329 10.4842V11.7465C16.9053 12.471 11.7424 17.4347 10.7146 23.767L10.6058 23.8486L10.5564 23.9968L10.402 24.4601H9.35703ZM24.9602 41.7742C24.7501 41.7742 24.541 41.7701 24.3329 41.7618V40.5057C24.5409 40.5147 24.75 40.5192 24.9602 40.5192C25.1703 40.5192 25.3794 40.5147 25.5874 40.5057V41.7618C25.3793 41.7701 25.1702 41.7742 24.9602 41.7742ZM40.6347 26.7145C40.6429 26.5064 40.6471 26.2973 40.6471 26.0873C40.6471 25.8772 40.6429 25.6681 40.6347 25.46H39.3786C39.3875 25.668 39.3921 25.8771 39.3921 26.0873C39.3921 26.2974 39.3875 26.5065 39.3786 26.7145H40.6347ZM40.5633 27.7145H39.3009C38.5502 34.3749 33.2478 39.6773 26.5874 40.428V41.6904C33.9405 40.9292 39.8021 35.0677 40.5633 27.7145ZM38.7045 18.5313C39.6938 20.3238 40.3427 22.3293 40.5633 24.46H39.3009C39.0872 22.5637 38.5044 20.7774 37.6264 19.175L38.7045 18.5313ZM23.3329 40.428V41.6904C20.585 41.4059 18.0454 40.4092 15.9025 38.8885L17.29 38.4838L17.2991 38.4811L17.3081 38.4781L17.4751 38.4225C19.2202 39.4853 21.2074 40.1885 23.3329 40.428ZM37.59 16.7929C37.8009 17.0786 38.0022 17.3717 38.1937 17.6717L37.1158 18.3152C36.6127 17.531 36.0358 16.7985 35.395 16.1274L35.6148 16.1824L37.59 16.7929ZM14.7079 37.9512L14.4124 36.474L14.4659 36.2069L14.3459 36.3269L13.6872 36.9855C14.0129 37.3223 14.3535 37.6445 14.7079 37.9512ZM14.5612 36.1115L14.6216 36.147L14.5744 36.0983L14.5612 36.1115Z" fill="#E9E9E9"/>
<path d="M49.7493 10.5915C49.5572 10.2573 49.1304 10.1421 48.7962 10.3343L44.4791 12.8164L44.0384 12.0498C43.8462 11.7156 43.4194 11.6005 43.0853 11.7926C42.751 11.9848 42.6358 12.4115 42.828 12.7458L43.2688 13.5124L37.7154 16.7052L35.8456 15.7766C35.6365 15.6727 35.3895 15.6803 35.1871 15.7966L22.433 23.1298L21.7978 22.636L22.7074 22.1131C22.7406 22.1278 22.7745 22.1407 22.8095 22.1501C22.982 22.1967 23.1723 22.1775 23.3394 22.0813C23.6737 21.8891 23.7888 21.4624 23.5966 21.1282L22.2893 18.8544C22.0971 18.5201 21.6703 18.4049 21.3362 18.5971C21.1351 18.7127 21.014 18.9133 20.9908 19.1274L12.1337 24.2199C11.937 24.1323 11.7026 24.136 11.5017 24.2516C11.1674 24.4438 11.0523 24.8704 11.2445 25.2047L12.5518 27.4785C12.6478 27.6457 12.8027 27.7581 12.9751 27.8046C13.1476 27.8511 13.3379 27.8319 13.505 27.7358C13.7061 27.6202 13.8271 27.4196 13.8504 27.2055L16.4446 25.7139L16.5516 26.5114L13.7017 28.1499C12.9991 28.5539 12.5464 29.2678 12.4547 30.048L1.72549 36.217C1.53638 36.3257 1.40887 36.5166 1.38108 36.733C1.3532 36.9493 1.42802 37.1663 1.58346 37.3194C3.12911 38.8425 4.32821 40.729 5.05101 42.7748L5.09055 42.8868C5.16708 43.1034 5.34515 43.2684 5.56686 43.3283C5.56702 43.3283 5.56719 43.3283 5.56743 43.3284C5.78935 43.3881 6.02645 43.3348 6.20147 43.1857L13.549 36.9269L13.7538 38.0986C13.7882 38.2949 13.9047 38.4671 14.0741 38.572C14.1324 38.6081 14.1948 38.6349 14.2596 38.6524C14.3834 38.6858 14.5152 38.6849 14.6407 38.6476L17.2863 37.8602C18.0979 37.6187 18.6107 36.8058 18.4794 35.9695L18.1483 33.8608L20.5228 32.4955C20.752 32.3637 20.8871 32.1137 20.8717 31.8497L20.7455 29.6832L21.4206 29.2951L22.4181 31.03C22.6103 31.3642 23.037 31.4794 23.3712 31.2872L26.841 29.2921C27.1753 29.0999 27.2904 28.6733 27.0982 28.339L26.1007 26.6041L34.4135 21.0709C34.7162 20.8658 34.8094 20.4619 34.6272 20.1449L34.604 20.1046L49.4921 11.5446C49.8263 11.3524 49.9415 10.9257 49.7493 10.5915ZM21.5702 20.4049L21.895 20.9697L19.2014 22.5184L18.8766 21.9536L21.5702 20.4049ZM20.4899 23.3881L21.1252 23.8819L17.8591 25.7597L17.7521 24.9623L20.4899 23.3881ZM13.2707 25.9284L12.9459 25.3635L17.6662 22.6495L17.991 23.2144L13.2707 25.9284ZM6.04808 41.4824C5.35919 39.838 4.38797 38.3073 3.19343 36.9836L12.6123 31.5681L13.2699 35.3307L6.04808 41.4824ZM16.8881 36.522L14.9941 37.0857L14.3436 33.3642L16.4654 32.1442L17.1001 36.1862C17.1235 36.3348 17.0324 36.4792 16.8881 36.522ZM17.9163 32.3837L17.7618 31.3989L19.3924 30.4613L19.4529 31.5002L17.9163 32.3837ZM14.0879 31.9007L13.8487 30.5323C13.7674 30.067 13.9879 29.5961 14.3974 29.3606L24.707 23.433L25.7278 25.2083L14.0879 31.9007ZM23.2806 29.729L22.631 28.5992L24.8904 27.3001L25.5399 28.4299L23.2806 29.729ZM26.9116 24.4661L25.9174 22.7371L32.3731 19.0253L33.0457 20.1952L33.0458 20.1954L33.0459 20.1956L33.0937 20.2787L26.9116 24.4661ZM33.9081 18.8943L33.5833 18.3294L35.5592 17.1933L36.2606 17.5417L33.9081 18.8943Z" fill="#E9E9E9"/>
</svg>
